# xmcd
#
# Track frame offsets:
# 150
# 21587
# 42078
# 64233
# 85736
# 108127
# 130967
# 152659
# 174314
# 195541
# 216713
# 239581
# 259830
# 280949
#
# Disc length: 4083 seconds
#
#
# Revision: 0
# Processed by: cddbd v1.5.2PL0 Copyright (c) Steve Scherf et al.
# Submitted via: FreeRIP 2.951 
#
DISCID=cb0ff10e
DTITLE=Jean Carlos Centeno - Ave Libre
DYEAR=2006
DGENRE=Vallenato
TTITLE0=DE DONDE AMOR
TTITLE1=Ninguna te iguala
TTITLE2=Lo busqué
TTITLE3=Mi reina
TTITLE4=Egoísmo
TTITLE5=Que tal que no vuelvas
TTITLE6=Te volví a encontrar
TTITLE7=Ayúdame a olvidarte
TTITLE8=Se va se va
TTITLE9=En el alma
TTITLE10=Un ocho de marzo (Dúo con Gilberto Santa Rosa)
TTITLE11=Realmente enamorado
TTITLE12=En mis sueños
TTITLE13=Ave libre
EXTD=
EXTT0=
EXTT1=
EXTT2=
EXTT3=
EXTT4=
EXTT5=
EXTT6=
EXTT7=
EXTT8=
EXTT9=
EXTT10=
EXTT11=
EXTT12=
EXTT13=
PLAYORDER=
